<svg xmlns="http://www.w3.org/2000/svg" xmlns:xlink="http://www.w3.org/1999/xlink" width="242" height="12" viewBox="0 0 242 12">
  <defs>
    <clipPath id="clip-path">
      <rect width="242" height="12" fill="none"/>
    </clipPath>
  </defs>
  <g id="Repeat_Grid_12" data-name="Repeat Grid 12" clip-path="url(#clip-path)">
    <g id="Group_180" data-name="Group 180" transform="translate(-150 -229)">
      <rect id="Rectangle_284" data-name="Rectangle 284" width="1" height="12" transform="translate(150 229)" fill="#707070"/>
      <rect id="Rectangle_285" data-name="Rectangle 285" width="1" height="7" transform="translate(156 234)" fill="#707070"/>
      <rect id="Rectangle_286" data-name="Rectangle 286" width="1" height="7" transform="translate(162 234)" fill="#707070"/>
      <rect id="Rectangle_287" data-name="Rectangle 287" width="1" height="7" transform="translate(168 234)" fill="#707070"/>
    </g>
    <g id="Group_180-2" data-name="Group 180" transform="translate(-126 -229)">
      <rect id="Rectangle_284-2" data-name="Rectangle 284" width="1" height="12" transform="translate(150 229)" fill="#707070"/>
      <rect id="Rectangle_285-2" data-name="Rectangle 285" width="1" height="7" transform="translate(156 234)" fill="#707070"/>
      <rect id="Rectangle_286-2" data-name="Rectangle 286" width="1" height="7" transform="translate(162 234)" fill="#707070"/>
      <rect id="Rectangle_287-2" data-name="Rectangle 287" width="1" height="7" transform="translate(168 234)" fill="#707070"/>
    </g>
    <g id="Group_180-3" data-name="Group 180" transform="translate(-102 -229)">
      <rect id="Rectangle_284-3" data-name="Rectangle 284" width="1" height="12" transform="translate(150 229)" fill="#707070"/>
      <rect id="Rectangle_285-3" data-name="Rectangle 285" width="1" height="7" transform="translate(156 234)" fill="#707070"/>
      <rect id="Rectangle_286-3" data-name="Rectangle 286" width="1" height="7" transform="translate(162 234)" fill="#707070"/>
      <rect id="Rectangle_287-3" data-name="Rectangle 287" width="1" height="7" transform="translate(168 234)" fill="#707070"/>
    </g>
    <g id="Group_180-4" data-name="Group 180" transform="translate(-78 -229)">
      <rect id="Rectangle_284-4" data-name="Rectangle 284" width="1" height="12" transform="translate(150 229)" fill="#707070"/>
      <rect id="Rectangle_285-4" data-name="Rectangle 285" width="1" height="7" transform="translate(156 234)" fill="#707070"/>
      <rect id="Rectangle_286-4" data-name="Rectangle 286" width="1" height="7" transform="translate(162 234)" fill="#707070"/>
      <rect id="Rectangle_287-4" data-name="Rectangle 287" width="1" height="7" transform="translate(168 234)" fill="#707070"/>
    </g>
    <g id="Group_180-5" data-name="Group 180" transform="translate(-54 -229)">
      <rect id="Rectangle_284-5" data-name="Rectangle 284" width="1" height="12" transform="translate(150 229)" fill="#707070"/>
      <rect id="Rectangle_285-5" data-name="Rectangle 285" width="1" height="7" transform="translate(156 234)" fill="#707070"/>
      <rect id="Rectangle_286-5" data-name="Rectangle 286" width="1" height="7" transform="translate(162 234)" fill="#707070"/>
      <rect id="Rectangle_287-5" data-name="Rectangle 287" width="1" height="7" transform="translate(168 234)" fill="#707070"/>
    </g>
    <g id="Group_180-6" data-name="Group 180" transform="translate(-30 -229)">
      <rect id="Rectangle_284-6" data-name="Rectangle 284" width="1" height="12" transform="translate(150 229)" fill="#707070"/>
      <rect id="Rectangle_285-6" data-name="Rectangle 285" width="1" height="7" transform="translate(156 234)" fill="#707070"/>
      <rect id="Rectangle_286-6" data-name="Rectangle 286" width="1" height="7" transform="translate(162 234)" fill="#707070"/>
      <rect id="Rectangle_287-6" data-name="Rectangle 287" width="1" height="7" transform="translate(168 234)" fill="#707070"/>
    </g>
    <g id="Group_180-7" data-name="Group 180" transform="translate(-6 -229)">
      <rect id="Rectangle_284-7" data-name="Rectangle 284" width="1" height="12" transform="translate(150 229)" fill="#707070"/>
      <rect id="Rectangle_285-7" data-name="Rectangle 285" width="1" height="7" transform="translate(156 234)" fill="#707070"/>
      <rect id="Rectangle_286-7" data-name="Rectangle 286" width="1" height="7" transform="translate(162 234)" fill="#707070"/>
      <rect id="Rectangle_287-7" data-name="Rectangle 287" width="1" height="7" transform="translate(168 234)" fill="#707070"/>
    </g>
    <g id="Group_180-8" data-name="Group 180" transform="translate(18 -229)">
      <rect id="Rectangle_284-8" data-name="Rectangle 284" width="1" height="12" transform="translate(150 229)" fill="#707070"/>
      <rect id="Rectangle_285-8" data-name="Rectangle 285" width="1" height="7" transform="translate(156 234)" fill="#707070"/>
      <rect id="Rectangle_286-8" data-name="Rectangle 286" width="1" height="7" transform="translate(162 234)" fill="#707070"/>
      <rect id="Rectangle_287-8" data-name="Rectangle 287" width="1" height="7" transform="translate(168 234)" fill="#707070"/>
    </g>
    <g id="Group_180-9" data-name="Group 180" transform="translate(42 -229)">
      <rect id="Rectangle_284-9" data-name="Rectangle 284" width="1" height="12" transform="translate(150 229)" fill="#707070"/>
      <rect id="Rectangle_285-9" data-name="Rectangle 285" width="1" height="7" transform="translate(156 234)" fill="#707070"/>
      <rect id="Rectangle_286-9" data-name="Rectangle 286" width="1" height="7" transform="translate(162 234)" fill="#707070"/>
      <rect id="Rectangle_287-9" data-name="Rectangle 287" width="1" height="7" transform="translate(168 234)" fill="#707070"/>
    </g>
    <g id="Group_180-10" data-name="Group 180" transform="translate(66 -229)">
      <rect id="Rectangle_284-10" data-name="Rectangle 284" width="1" height="12" transform="translate(150 229)" fill="#707070"/>
      <rect id="Rectangle_285-10" data-name="Rectangle 285" width="1" height="7" transform="translate(156 234)" fill="#707070"/>
      <rect id="Rectangle_286-10" data-name="Rectangle 286" width="1" height="7" transform="translate(162 234)" fill="#707070"/>
      <rect id="Rectangle_287-10" data-name="Rectangle 287" width="1" height="7" transform="translate(168 234)" fill="#707070"/>
    </g>
    <g id="Group_180-11" data-name="Group 180" transform="translate(90 -229)">
      <rect id="Rectangle_284-11" data-name="Rectangle 284" width="1" height="12" transform="translate(150 229)" fill="#707070"/>
      <rect id="Rectangle_285-11" data-name="Rectangle 285" width="1" height="7" transform="translate(156 234)" fill="#707070"/>
      <rect id="Rectangle_286-11" data-name="Rectangle 286" width="1" height="7" transform="translate(162 234)" fill="#707070"/>
      <rect id="Rectangle_287-11" data-name="Rectangle 287" width="1" height="7" transform="translate(168 234)" fill="#707070"/>
    </g>
  </g>
</svg>
