<svg id="_3669250_settings_ic_icon" data-name="3669250_settings_ic_icon" xmlns="http://www.w3.org/2000/svg" width="18.233" height="18.233" viewBox="0 0 18.233 18.233">
  <path id="Path_31" data-name="Path 31" d="M0,0H18.233V18.233H0Z" fill="none"/>
  <path id="Path_32" data-name="Path 32" d="M17.58,12.338a5.185,5.185,0,0,0,0-1.481L19.187,9.6a.379.379,0,0,0,.091-.486L17.759,6.481a.376.376,0,0,0-.463-.163L15.4,7.081a5.765,5.765,0,0,0-1.284-.748l-.285-2.013A.391.391,0,0,0,13.455,4H10.416a.384.384,0,0,0-.376.319L9.755,6.332a5.622,5.622,0,0,0-1.284.748L6.58,6.317a.38.38,0,0,0-.463.163L4.6,9.113a.381.381,0,0,0,.091.486l1.6,1.257a5.185,5.185,0,0,0,0,1.481L4.688,13.6a.379.379,0,0,0-.091.486l1.519,2.632a.376.376,0,0,0,.463.163l1.892-.764a5.765,5.765,0,0,0,1.284.748l.285,2.013a.384.384,0,0,0,.376.319h3.039a.384.384,0,0,0,.376-.319l.285-2.013a5.622,5.622,0,0,0,1.284-.748l1.892.764a.38.38,0,0,0,.463-.163l1.519-2.632a.381.381,0,0,0-.091-.486Zm-5.645,1.918A2.659,2.659,0,1,1,14.595,11.6,2.657,2.657,0,0,1,11.936,14.256Z" transform="translate(-2.819 -2.481)" fill="#e2ccff"/>
</svg>
