<svg xmlns="http://www.w3.org/2000/svg" width="14.57" height="13.573" viewBox="0 0 14.57 13.573">
  <path id="_7694016_signal_connect_internet_wifi_wireless_icon" data-name="7694016_signal_connect_internet_wifi_wireless_icon" d="M9.624,4.508a9.758,9.758,0,0,0-6.064,2.1.754.754,0,1,1-.934-1.184,11.313,11.313,0,0,1,14,0,.754.754,0,1,1-.934,1.184A9.758,9.758,0,0,0,9.624,4.508Zm0,3.016A6.764,6.764,0,0,0,4.777,9.56.754.754,0,1,1,3.7,8.5a8.295,8.295,0,0,1,11.847,0A.754.754,0,1,1,14.471,9.56,6.764,6.764,0,0,0,9.624,7.524Zm0,3.016A3.759,3.759,0,0,0,6.814,11.8a.754.754,0,0,1-1.123-1.006,5.279,5.279,0,0,1,7.867,0A.754.754,0,1,1,12.434,11.8,3.759,3.759,0,0,0,9.624,10.541Zm0,3.016a.754.754,0,1,0,.754.754A.754.754,0,0,0,9.624,13.557Zm-2.262.754a2.262,2.262,0,1,1,2.262,2.262A2.262,2.262,0,0,1,7.362,14.311Z" transform="translate(-2.339 -3)" fill="#d4b5ff" fill-rule="evenodd"/>
</svg>
